M48
; DRILL file {KiCad 9.0.7} date 2026-02-03T22:56:26-0500
; FORMAT={-:-/ absolute / metric / decimal}
; #@! TF.CreationDate,2026-02-03T22:56:26-05:00
; #@! TF.GenerationSoftware,Kicad,Pcbnew,9.0.7
; #@! TF.FileFunction,Plated,1,2,PTH
FMAT,2
METRIC
; #@! TA.AperFunction,Plated,PTH,ComponentDrill
T1C0.800
; #@! TA.AperFunction,Plated,PTH,ComponentDrill
T2C0.900
%
G90
G05
T1
X118.0Y-93.69
X118.0Y-101.31
X124.195Y-88.69
X124.195Y-91.23
X124.195Y-93.77
X124.195Y-96.31
X130.0Y-100.5
X130.0Y-105.5
X131.815Y-88.69
X131.815Y-91.23
X131.815Y-93.77
X131.815Y-96.31
X135.0Y-105.0
X136.5Y-83.69
X136.5Y-91.31
X140.0Y-105.0
X141.5Y-91.5
X141.5Y-99.12
T2
X122.5Y-103.23
X122.5Y-105.77
M30
