%TF.GenerationSoftware,KiCad,Pcbnew,9.0.7*%
%TF.CreationDate,2026-02-08T11:51:19-05:00*%
%TF.ProjectId,555timerCES,35353574-696d-4657-9243-45532e6b6963,rev?*%
%TF.SameCoordinates,Original*%
%TF.FileFunction,Copper,L1,Top*%
%TF.FilePolarity,Positive*%
%FSLAX46Y46*%
G04 Gerber Fmt 4.6, Leading zero omitted, Abs format (unit mm)*
G04 Created by KiCad (PCBNEW 9.0.7) date 2026-02-08 11:51:19*
%MOMM*%
%LPD*%
G01*
G04 APERTURE LIST*
G04 Aperture macros list*
%AMRoundRect*
0 Rectangle with rounded corners*
0 $1 Rounding radius*
0 $2 $3 $4 $5 $6 $7 $8 $9 X,Y pos of 4 corners*
0 Add a 4 corners polygon primitive as box body*
4,1,4,$2,$3,$4,$5,$6,$7,$8,$9,$2,$3,0*
0 Add four circle primitives for the rounded corners*
1,1,$1+$1,$2,$3*
1,1,$1+$1,$4,$5*
1,1,$1+$1,$6,$7*
1,1,$1+$1,$8,$9*
0 Add four rect primitives between the rounded corners*
20,1,$1+$1,$2,$3,$4,$5,0*
20,1,$1+$1,$4,$5,$6,$7,0*
20,1,$1+$1,$6,$7,$8,$9,0*
20,1,$1+$1,$8,$9,$2,$3,0*%
G04 Aperture macros list end*
%TA.AperFunction,ComponentPad*%
%ADD10C,2.000000*%
%TD*%
%TA.AperFunction,ComponentPad*%
%ADD11R,2.000000X2.000000*%
%TD*%
%TA.AperFunction,ComponentPad*%
%ADD12RoundRect,0.312500X-0.687500X-0.687500X0.687500X-0.687500X0.687500X0.687500X-0.687500X0.687500X0*%
%TD*%
%TA.AperFunction,SMDPad,CuDef*%
%ADD13C,17.900000*%
%TD*%
%TA.AperFunction,SMDPad,CuDef*%
%ADD14R,5.700000X6.100000*%
%TD*%
%TA.AperFunction,Conductor*%
%ADD15C,0.800000*%
%TD*%
G04 APERTURE END LIST*
D10*
%TO.P,C2,1*%
%TO.N,Net-(U1-CV)*%
X130000000Y-100500000D03*
%TO.P,C2,2*%
%TO.N,GND*%
X130000000Y-105500000D03*
%TD*%
%TO.P,R1,1*%
%TO.N,+3V0*%
X136500000Y-83690000D03*
%TO.P,R1,2*%
%TO.N,Net-(U1-DIS)*%
X136500000Y-91310000D03*
%TD*%
%TO.P,R2,1*%
%TO.N,Net-(U1-DIS)*%
X141500000Y-91500000D03*
%TO.P,R2,2*%
%TO.N,Net-(U1-THR)*%
X141500000Y-99120000D03*
%TD*%
%TO.P,C1,1*%
%TO.N,GND*%
X135000000Y-105000000D03*
%TO.P,C1,2*%
%TO.N,Net-(U1-THR)*%
X140000000Y-105000000D03*
%TD*%
D11*
%TO.P,D1,1,K*%
%TO.N,GND*%
X122500000Y-105770000D03*
D10*
%TO.P,D1,2,A*%
%TO.N,Net-(D1-A)*%
X122500000Y-103230000D03*
%TD*%
%TO.P,R3,1*%
%TO.N,Net-(D1-A)*%
X118000000Y-101310000D03*
%TO.P,R3,2*%
%TO.N,Net-(U1-Q)*%
X118000000Y-93690000D03*
%TD*%
D12*
%TO.P,U1,1,GND*%
%TO.N,GND*%
X124195000Y-88690000D03*
D10*
%TO.P,U1,2,TR*%
%TO.N,Net-(U1-THR)*%
X124195000Y-91230000D03*
%TO.P,U1,3,Q*%
%TO.N,Net-(U1-Q)*%
X124195000Y-93770000D03*
%TO.P,U1,4,R*%
%TO.N,+3V0*%
X124195000Y-96310000D03*
%TO.P,U1,5,CV*%
%TO.N,Net-(U1-CV)*%
X131815000Y-96310000D03*
%TO.P,U1,6,THR*%
%TO.N,Net-(U1-THR)*%
X131815000Y-93770000D03*
%TO.P,U1,7,DIS*%
%TO.N,Net-(U1-DIS)*%
X131815000Y-91230000D03*
%TO.P,U1,8,VCC*%
%TO.N,+3V0*%
X131815000Y-88690000D03*
%TD*%
D13*
%TO.P,BT2,N*%
%TO.N,GND*%
X128600000Y-72000000D03*
D14*
%TO.P,BT2,P1*%
%TO.N,+3V0*%
X115700000Y-72000000D03*
%TO.P,BT2,P2*%
X141500000Y-72000000D03*
%TD*%
D15*
%TO.N,GND*%
X130000000Y-105500000D02*
X122770000Y-105500000D01*
X115810000Y-88690000D02*
X124195000Y-88690000D01*
X112500000Y-102500000D02*
X112500000Y-92000000D01*
X122500000Y-105770000D02*
X115770000Y-105770000D01*
X112500000Y-92000000D02*
X115810000Y-88690000D01*
X134500000Y-105500000D02*
X135000000Y-105000000D01*
X128600000Y-72000000D02*
X124195000Y-76405000D01*
X130000000Y-105500000D02*
X134500000Y-105500000D01*
X124195000Y-76405000D02*
X124195000Y-88690000D01*
X115770000Y-105770000D02*
X112500000Y-102500000D01*
X122770000Y-105500000D02*
X122500000Y-105770000D01*
%TO.N,+3V0*%
X145000000Y-88500000D02*
X141310000Y-88500000D01*
X126000000Y-103000000D02*
X132500000Y-103000000D01*
X131815000Y-88375000D02*
X136500000Y-83690000D01*
X135000000Y-100500000D02*
X137500000Y-100500000D01*
X145000000Y-108500000D02*
X145000000Y-88500000D01*
X124195000Y-96310000D02*
X126000000Y-98115000D01*
X132500000Y-103000000D02*
X135000000Y-100500000D01*
X126000000Y-98115000D02*
X126000000Y-103000000D01*
X141500000Y-72000000D02*
X141500000Y-78690000D01*
X141500000Y-78690000D02*
X136500000Y-83690000D01*
X137500000Y-100500000D02*
X137500000Y-108500000D01*
X141310000Y-88500000D02*
X136500000Y-83690000D01*
X137500000Y-108500000D02*
X145000000Y-108500000D01*
X131815000Y-88690000D02*
X131815000Y-88375000D01*
%TO.N,Net-(U1-THR)*%
X131815000Y-93770000D02*
X136150000Y-93770000D01*
X141500000Y-99120000D02*
X141500000Y-105000000D01*
X128270000Y-93770000D02*
X131815000Y-93770000D01*
X128000000Y-93500000D02*
X128270000Y-93770000D01*
X141500000Y-105000000D02*
X140000000Y-105000000D01*
X136150000Y-93770000D02*
X141500000Y-99120000D01*
X124195000Y-91230000D02*
X127730000Y-91230000D01*
X127730000Y-91230000D02*
X128000000Y-91500000D01*
X128000000Y-91500000D02*
X128000000Y-93500000D01*
%TO.N,Net-(U1-CV)*%
X132000000Y-100500000D02*
X130000000Y-100500000D01*
X131815000Y-100315000D02*
X132000000Y-100500000D01*
X131815000Y-96310000D02*
X131815000Y-100315000D01*
%TO.N,Net-(D1-A)*%
X120580000Y-101310000D02*
X122500000Y-103230000D01*
X118000000Y-101310000D02*
X120580000Y-101310000D01*
%TO.N,Net-(U1-DIS)*%
X141230000Y-91230000D02*
X141500000Y-91500000D01*
X131815000Y-91230000D02*
X141230000Y-91230000D01*
%TO.N,Net-(U1-Q)*%
X118000000Y-93690000D02*
X124115000Y-93690000D01*
X124115000Y-93690000D02*
X124195000Y-93770000D01*
%TD*%
M02*
