<?xml version="1.0" encoding="UTF-8"?>
<svg xmlns="http://www.w3.org/2000/svg" width="33.50mm" height="32.08mm" viewBox="113.00 78.69 33.50 32.08">
  <circle cx="118.000" cy="93.690" r="0.400" fill="none" stroke="#000000" stroke-width="0.1"/>
  <circle cx="118.000" cy="101.310" r="0.400" fill="none" stroke="#000000" stroke-width="0.1"/>
  <circle cx="130.000" cy="105.500" r="0.400" fill="none" stroke="#000000" stroke-width="0.1"/>
  <circle cx="135.000" cy="105.000" r="0.400" fill="none" stroke="#000000" stroke-width="0.1"/>
  <circle cx="140.000" cy="105.000" r="0.400" fill="none" stroke="#000000" stroke-width="0.1"/>
  <circle cx="141.500" cy="99.120" r="0.400" fill="none" stroke="#000000" stroke-width="0.1"/>
  <circle cx="141.500" cy="91.500" r="0.400" fill="none" stroke="#000000" stroke-width="0.1"/>
  <circle cx="136.500" cy="91.310" r="0.400" fill="none" stroke="#000000" stroke-width="0.1"/>
  <circle cx="131.815" cy="88.690" r="0.400" fill="none" stroke="#000000" stroke-width="0.1"/>
  <circle cx="131.815" cy="91.230" r="0.400" fill="none" stroke="#000000" stroke-width="0.1"/>
  <circle cx="131.815" cy="93.770" r="0.400" fill="none" stroke="#000000" stroke-width="0.1"/>
  <circle cx="131.815" cy="96.310" r="0.400" fill="none" stroke="#000000" stroke-width="0.1"/>
  <circle cx="130.000" cy="100.500" r="0.400" fill="none" stroke="#000000" stroke-width="0.1"/>
  <circle cx="124.195" cy="96.310" r="0.400" fill="none" stroke="#000000" stroke-width="0.1"/>
  <circle cx="124.195" cy="93.770" r="0.400" fill="none" stroke="#000000" stroke-width="0.1"/>
  <circle cx="124.195" cy="91.230" r="0.400" fill="none" stroke="#000000" stroke-width="0.1"/>
  <circle cx="124.195" cy="88.690" r="0.400" fill="none" stroke="#000000" stroke-width="0.1"/>
  <circle cx="136.500" cy="83.690" r="0.400" fill="none" stroke="#000000" stroke-width="0.1"/>
  <circle cx="122.500" cy="103.230" r="0.450" fill="none" stroke="#000000" stroke-width="0.1"/>
  <circle cx="122.500" cy="105.770" r="0.450" fill="none" stroke="#000000" stroke-width="0.1"/>
</svg>
