<?xml version="1.0" encoding="UTF-8"?>
<svg xmlns="http://www.w3.org/2000/svg" width="99.30mm" height="92.30mm" viewBox="79.10 38.60 99.30 92.30">
  <path d="M 84.100 58.984 L 84.104 59.055 L 87.104 80.555 L 87.118 80.619 L 87.142 80.679 L 95.142 96.679 L 95.169 96.724 L 95.201 96.766 L 95.238 96.802 L 110.930 110.386 L 113.047 112.219 L 128.738 125.802 L 128.802 125.847 L 128.873 125.879 L 128.949 125.897 L 129.028 125.899 L 129.105 125.886 L 129.178 125.858 L 129.244 125.817 L 161.744 100.817 L 161.784 100.782 L 161.819 100.742 L 161.848 100.697 L 166.407 92.665 L 167.789 90.230 L 172.348 82.197 L 172.375 82.140 L 172.392 82.079 L 172.400 82.016 L 173.400 57.516 L 173.397 57.447 L 173.382 57.380 L 173.355 57.317 L 173.319 57.258 L 173.273 57.207 L 158.773 43.707 L 158.714 43.662 L 158.648 43.629 L 158.578 43.608 L 158.504 43.600 L 158.430 43.606 L 151.309 44.863 L 148.552 45.349 L 141.430 46.606 L 141.379 46.619 L 141.330 46.638 L 141.284 46.663 L 129.020 54.512 L 118.742 46.682 L 118.686 46.646 L 118.624 46.620 L 118.559 46.604 L 98.559 43.604 L 98.482 43.600 L 98.405 43.611 L 98.332 43.637 L 98.266 43.676 L 98.208 43.727 L 92.163 50.204 L 90.252 52.251 L 84.208 58.727 L 84.164 58.783 L 84.131 58.846 L 84.109 58.914" fill="none" stroke="#000000" stroke-width="0.2"/>
</svg>
