<?xml version="1.0" encoding="UTF-8"?>
<svg xmlns="http://www.w3.org/2000/svg" width="43.86mm" height="56.36mm" viewBox="106.82 57.82 43.86 56.36">
  <path d="M 111.820 102.500 L 111.820 92.000 L 111.833 91.867 L 111.862 91.766 L 111.883 91.715 L 111.920 91.646 L 111.951 91.600 L 112.019 91.519 L 115.329 88.209 L 115.393 88.153 L 115.429 88.128 L 115.482 88.095 L 115.579 88.051 L 115.682 88.023 L 115.725 88.016 L 115.810 88.010 L 122.915 88.010 L 122.934 88.031 L 122.915 88.010 L 122.917 87.973 L 122.928 87.879 L 122.956 87.789 L 122.980 87.735 L 123.028 87.654 L 123.090 87.583 L 123.134 87.544 L 123.211 87.489 L 123.324 87.439 L 123.417 87.418 L 123.473 87.412 L 123.515 87.412 L 123.535 87.428 L 123.515 87.412 L 123.515 79.654 L 123.524 79.649 L 123.515 79.654 L 122.424 78.859 L 121.133 77.425 L 120.168 75.754 L 119.572 73.919 L 119.370 72.000 L 119.567 70.110 L 119.579 70.053 L 120.157 68.273 L 120.181 68.220 L 121.133 66.575 L 122.424 65.141 L 123.985 64.007 L 125.748 63.222 L 127.635 62.821 L 129.565 62.821 L 131.452 63.222 L 133.215 64.007 L 134.776 65.141 L 136.067 66.575 L 137.032 68.246 L 137.621 70.053 L 137.633 70.110 L 137.830 72.000 L 137.633 73.890 L 137.621 73.947 L 137.042 75.727 L 137.019 75.780 L 136.067 77.425 L 134.776 78.859 L 133.215 79.993 L 131.452 80.778 L 129.565 81.179 L 127.635 81.179 L 125.748 80.778 L 124.875 80.391 L 124.839 80.335 L 124.875 80.391 L 124.875 87.410 L 124.856 87.427 L 124.875 87.410 L 124.930 87.412 L 124.973 87.418 L 125.066 87.439 L 125.179 87.489 L 125.279 87.562 L 125.362 87.654 L 125.424 87.762 L 125.462 87.879 L 125.475 88.002 L 125.475 89.377 L 125.467 89.472 L 125.454 89.529 L 125.424 89.618 L 125.362 89.726 L 125.279 89.818 L 125.203 89.875 L 125.153 89.904 L 125.066 89.941 L 124.973 89.962 L 124.897 89.970 L 124.691 89.970 L 124.570 89.948 L 124.300 89.923 L 124.090 89.923 L 124.031 89.926 L 123.818 89.948 L 123.699 89.970 L 123.460 89.968 L 123.353 89.949 L 123.297 89.930 L 123.237 89.904 L 123.187 89.875 L 123.111 89.818 L 123.028 89.726 L 122.966 89.618 L 122.928 89.501 L 122.915 89.370 L 122.934 89.349 L 122.915 89.370 L 116.092 89.370 L 116.089 89.364 L 116.092 89.370 L 113.180 92.282 L 113.174 92.279 L 113.180 92.282 L 113.180 102.218 L 113.174 102.221 L 113.180 102.218 L 116.052 105.090 L 116.049 105.096 L 116.052 105.090 L 121.220 105.090 L 121.243 105.113 L 121.220 105.090 L 121.220 104.770 L 121.225 104.715 L 121.241 104.663 L 121.267 104.614 L 121.302 104.572 L 121.344 104.537 L 121.393 104.511 L 121.445 104.495 L 121.500 104.490 L 122.004 104.490 L 122.125 104.512 L 122.395 104.537 L 122.666 104.534 L 122.877 104.512 L 122.996 104.490 L 123.500 104.490 L 123.555 104.495 L 123.607 104.511 L 123.656 104.537 L 123.698 104.572 L 123.733 104.614 L 123.759 104.663 L 123.775 104.715 L 123.780 104.770 L 123.780 104.820 L 123.759 104.842 L 123.780 104.820 L 128.921 104.820 L 128.927 104.830 L 128.921 104.820 L 128.964 104.748 L 129.123 104.570 L 129.166 104.530 L 129.360 104.392 L 129.604 104.283 L 129.837 104.232 L 129.895 104.225 L 130.134 104.227 L 130.367 104.275 L 130.423 104.293 L 130.640 104.392 L 130.834 104.530 L 130.877 104.570 L 131.036 104.748 L 131.079 104.820 L 131.073 104.830 L 131.079 104.820 L 133.737 104.820 L 133.754 104.839 L 133.737 104.820 L 133.748 104.734 L 133.831 104.479 L 133.964 104.248 L 134.144 104.049 L 134.360 103.892 L 134.604 103.783 L 134.866 103.727 L 135.105 103.725 L 135.163 103.732 L 135.396 103.783 L 135.614 103.878 L 135.665 103.907 L 135.834 104.030 L 135.877 104.070 L 136.035 104.248 L 136.156 104.453 L 136.180 104.507 L 136.252 104.734 L 136.280 105.000 L 136.252 105.266 L 136.180 105.493 L 136.156 105.547 L 136.035 105.752 L 135.877 105.930 L 135.834 105.970 L 135.640 106.108 L 135.423 106.207 L 135.367 106.225 L 135.163 106.268 L 135.105 106.274 L 134.866 106.273 L 134.604 106.217 L 134.515 106.178 L 131.079 106.180 L 131.073 106.170 L 131.079 106.180 L 131.036 106.252 L 130.877 106.430 L 130.834 106.470 L 130.640 106.608 L 130.396 106.717 L 130.163 106.768 L 130.105 106.774 L 129.866 106.773 L 129.633 106.725 L 129.577 106.707 L 129.360 106.608 L 129.166 106.470 L 129.123 106.430 L 128.964 106.252 L 128.921 106.180 L 128.927 106.170 L 128.921 106.180 L 123.780 106.180 L 123.757 106.157 L 123.780 106.180 L 123.780 106.770 L 123.775 106.825 L 123.759 106.877 L 123.733 106.926 L 123.698 106.968 L 123.656 107.003 L 123.607 107.029 L 123.555 107.045 L 123.500 107.050 L 121.500 107.050 L 121.445 107.045 L 121.393 107.029 L 121.344 107.003 L 121.302 106.968 L 121.267 106.926 L 121.241 106.877 L 121.225 106.825 L 121.220 106.770 L 121.220 106.450 L 121.243 106.427 L 121.220 106.450 L 115.770 106.450 L 115.665 106.441 L 115.611 106.430 L 115.536 106.407 L 115.485 106.386 L 115.416 106.349 L 115.370 106.319 L 115.289 106.251 L 112.019 102.981 L 111.963 102.917 L 111.938 102.881 L 111.885 102.789 L 111.847 102.689 L 111.826 102.585 L 111.820 102.500 L 111.900 102.500 L 111.900 92.000 L 111.912 91.883 L 111.939 91.789 L 111.954 91.753 L 111.991 91.683 L 112.013 91.651 L 112.076 91.576 L 115.386 88.266 L 115.470 88.196 L 115.524 88.163 L 115.610 88.125 L 115.701 88.100 L 115.810 88.090 L 122.995 88.090 L 123.016 88.112 L 122.995 88.090 L 122.996 87.982 L 123.003 87.917 L 123.012 87.876 L 123.039 87.794 L 123.081 87.719 L 123.106 87.685 L 123.165 87.622 L 123.251 87.559 L 123.330 87.523 L 123.369 87.510 L 123.453 87.493 L 123.595 87.491 L 123.618 87.514 L 123.595 87.491 L 123.595 79.613 L 123.604 79.609 L 123.595 79.613 L 122.477 78.800 L 121.198 77.378 L 120.241 75.722 L 119.650 73.902 L 119.451 72.021 L 119.451 71.979 L 119.650 70.098 L 120.241 68.278 L 121.198 66.622 L 122.463 65.215 L 122.494 65.187 L 124.025 64.076 L 125.753 63.305 L 125.793 63.292 L 127.644 62.900 L 129.556 62.900 L 131.428 63.298 L 133.175 64.076 L 134.723 65.200 L 135.989 66.606 L 136.014 66.639 L 136.949 68.260 L 136.966 68.298 L 137.550 70.098 L 137.749 71.979 L 137.749 72.021 L 137.550 73.902 L 136.959 75.722 L 136.002 77.378 L 134.723 78.800 L 133.175 79.924 L 131.428 80.702 L 129.556 81.100 L 127.644 81.100 L 125.772 80.702 L 124.795 80.268 L 124.759 80.212 L 124.795 80.268 L 124.795 87.490 L 124.774 87.509 L 124.795 87.490 L 124.882 87.490 L 124.957 87.496 L 125.021 87.510 L 125.060 87.523 L 125.139 87.559 L 125.209 87.608 L 125.240 87.636 L 125.297 87.701 L 125.351 87.794 L 125.384 87.896 L 125.395 88.002 L 125.395 89.377 L 125.387 89.463 L 125.378 89.504 L 125.351 89.586 L 125.297 89.679 L 125.225 89.758 L 125.156 89.810 L 125.120 89.831 L 125.041 89.865 L 124.957 89.884 L 124.893 89.890 L 123.507 89.890 L 123.433 89.884 L 123.369 89.870 L 123.330 89.857 L 123.270 89.831 L 123.234 89.810 L 123.165 89.758 L 123.106 89.695 L 123.081 89.661 L 123.039 89.586 L 123.006 89.484 L 122.996 89.398 L 122.995 89.290 L 123.015 89.269 L 122.995 89.290 L 116.058 89.290 L 116.056 89.284 L 116.058 89.290 L 113.100 92.249 L 113.094 92.246 L 113.100 92.249 L 113.100 102.251 L 113.094 102.254 L 113.100 102.251 L 116.019 105.170 L 116.016 105.176 L 116.019 105.170 L 121.300 105.170 L 121.323 105.193 L 121.300 105.170 L 121.300 104.770 L 121.304 104.731 L 121.315 104.693 L 121.334 104.659 L 121.359 104.629 L 121.389 104.604 L 121.423 104.585 L 121.461 104.574 L 121.500 104.570 L 123.500 104.570 L 123.539 104.574 L 123.577 104.585 L 123.611 104.604 L 123.641 104.629 L 123.666 104.659 L 123.685 104.693 L 123.696 104.731 L 123.700 104.770 L 123.700 104.900 L 123.680 104.921 L 123.700 104.900 L 128.968 104.900 L 128.974 104.911 L 128.968 104.900 L 129.029 104.795 L 129.182 104.623 L 129.213 104.595 L 129.382 104.472 L 129.419 104.451 L 129.629 104.359 L 129.854 104.310 L 129.895 104.305 L 130.125 104.307 L 130.351 104.353 L 130.390 104.366 L 130.600 104.461 L 130.787 104.595 L 130.818 104.623 L 130.971 104.795 L 131.032 104.900 L 131.026 104.911 L 131.032 104.900 L 133.809 104.900 L 133.828 104.920 L 133.809 104.900 L 133.826 104.750 L 133.904 104.512 L 134.029 104.295 L 134.197 104.108 L 134.400 103.961 L 134.629 103.859 L 134.875 103.807 L 135.105 103.805 L 135.146 103.810 L 135.371 103.859 L 135.600 103.961 L 135.803 104.108 L 135.958 104.278 L 135.982 104.312 L 136.096 104.512 L 136.168 104.730 L 136.177 104.771 L 136.199 104.979 L 136.199 105.021 L 136.174 105.249 L 136.096 105.488 L 135.971 105.705 L 135.818 105.877 L 135.787 105.905 L 135.618 106.028 L 135.581 106.049 L 135.371 106.141 L 135.146 106.190 L 135.105 106.195 L 134.875 106.193 L 134.629 106.141 L 134.530 106.097 L 134.500 106.100 L 131.032 106.100 L 131.026 106.089 L 131.032 106.100 L 130.971 106.205 L 130.818 106.377 L 130.787 106.405 L 130.618 106.528 L 130.581 106.549 L 130.371 106.641 L 130.146 106.690 L 130.105 106.695 L 129.875 106.693 L 129.649 106.647 L 129.610 106.634 L 129.400 106.539 L 129.213 106.405 L 129.182 106.377 L 129.029 106.205 L 128.968 106.100 L 128.974 106.089 L 128.968 106.100 L 123.700 106.100 L 123.677 106.077 L 123.700 106.100 L 123.700 106.770 L 123.696 106.809 L 123.685 106.847 L 123.666 106.881 L 123.641 106.911 L 123.611 106.936 L 123.577 106.955 L 123.539 106.966 L 123.500 106.970 L 121.500 106.970 L 121.461 106.966 L 121.423 106.955 L 121.389 106.936 L 121.359 106.911 L 121.334 106.881 L 121.315 106.847 L 121.304 106.809 L 121.300 106.770 L 121.300 106.370 L 121.323 106.347 L 121.300 106.370 L 115.770 106.370 L 115.672 106.361 L 115.634 106.354 L 115.559 106.331 L 115.523 106.316 L 115.453 106.279 L 115.421 106.257 L 115.346 106.194 L 112.076 102.924 L 112.006 102.840 L 111.959 102.758 L 111.925 102.670 L 111.906 102.578 L 111.900 102.500 L 111.980 102.500 L 111.988 102.591 L 112.009 102.669 L 112.033 102.728 L 112.074 102.798 L 112.132 102.868 L 115.402 106.138 L 115.472 106.195 L 115.560 106.245 L 115.680 106.282 L 115.770 106.290 L 121.380 106.290 L 121.382 106.793 L 121.389 106.816 L 121.415 106.855 L 121.454 106.881 L 121.477 106.888 L 123.500 106.890 L 123.546 106.881 L 123.567 106.870 L 123.600 106.837 L 123.618 106.793 L 123.620 106.020 L 129.014 106.020 L 129.094 106.158 L 129.242 106.323 L 129.440 106.470 L 129.666 106.568 L 129.883 106.614 L 130.105 106.615 L 130.346 106.565 L 130.571 106.463 L 130.758 106.323 L 130.906 106.158 L 130.986 106.020 L 134.500 106.020 L 134.543 106.016 L 134.654 106.065 L 134.871 106.112 L 134.895 106.114 L 135.129 106.112 L 135.358 106.061 L 135.560 105.970 L 135.740 105.840 L 135.906 105.658 L 136.023 105.456 L 136.096 105.233 L 136.119 104.987 L 136.096 104.767 L 136.028 104.556 L 135.913 104.352 L 135.749 104.168 L 135.560 104.030 L 135.346 103.935 L 135.105 103.885 L 134.883 103.886 L 134.654 103.935 L 134.440 104.030 L 134.251 104.168 L 134.094 104.342 L 133.977 104.544 L 133.904 104.767 L 133.881 104.980 L 130.986 104.980 L 130.906 104.842 L 130.758 104.677 L 130.560 104.530 L 130.334 104.432 L 130.117 104.386 L 129.895 104.385 L 129.654 104.435 L 129.429 104.537 L 129.242 104.677 L 129.094 104.842 L 129.014 104.980 L 123.620 104.980 L 123.618 104.747 L 123.611 104.724 L 123.585 104.685 L 123.567 104.670 L 123.523 104.652 L 121.500 104.650 L 121.477 104.652 L 121.433 104.670 L 121.400 104.703 L 121.382 104.747 L 121.380 105.250 L 115.985 105.250 L 113.020 102.285 L 113.020 92.215 L 116.025 89.210 L 123.075 89.210 L 123.075 89.377 L 123.082 89.455 L 123.088 89.480 L 123.118 89.565 L 123.158 89.632 L 123.218 89.699 L 123.291 89.752 L 123.386 89.792 L 123.450 89.806 L 123.507 89.810 L 124.889 89.810 L 124.940 89.806 L 125.016 89.789 L 125.109 89.745 L 125.172 89.699 L 125.232 89.632 L 125.278 89.553 L 125.308 89.455 L 125.315 89.377 L 125.315 88.002 L 125.306 87.913 L 125.278 87.827 L 125.232 87.748 L 125.172 87.681 L 125.099 87.628 L 125.016 87.591 L 124.940 87.574 L 124.882 87.570 L 124.715 87.570 L 124.715 80.145 L 125.797 80.626 L 127.652 81.020 L 129.548 81.020 L 131.403 80.626 L 133.135 79.855 L 134.669 78.740 L 135.938 77.331 L 136.886 75.689 L 137.472 73.886 L 137.670 72.000 L 137.472 70.114 L 136.890 68.323 L 136.880 68.300 L 135.945 66.679 L 135.930 66.659 L 134.669 65.260 L 133.146 64.152 L 133.124 64.139 L 131.403 63.374 L 129.548 62.980 L 127.664 62.979 L 127.639 62.982 L 125.797 63.374 L 124.065 64.145 L 122.541 65.252 L 122.522 65.269 L 121.262 66.669 L 120.314 68.311 L 119.731 70.102 L 119.726 70.127 L 119.530 72.000 L 119.728 73.886 L 120.314 75.689 L 121.262 77.331 L 122.531 78.740 L 123.675 79.572 L 123.675 87.571 L 123.462 87.572 L 123.386 87.588 L 123.291 87.628 L 123.218 87.681 L 123.151 87.759 L 123.112 87.827 L 123.088 87.900 L 123.075 88.002 L 123.075 88.170 L 115.810 88.170 L 115.719 88.178 L 115.640 88.199 L 115.582 88.223 L 115.512 88.264 L 115.442 88.322 L 112.132 91.632 L 112.075 91.702 L 112.016 91.812 L 111.990 91.899 L 111.980 92.000 L 111.980 102.500" fill="none" stroke="#000000" stroke-width="0.2"/>
  <path d="M 116.720 101.310 L 116.748 101.576 L 116.820 101.803 L 116.844 101.857 L 116.949 102.038 L 116.983 102.085 L 117.144 102.261 L 117.360 102.418 L 117.604 102.527 L 117.837 102.578 L 117.895 102.584 L 118.105 102.584 L 118.163 102.578 L 118.396 102.527 L 118.614 102.432 L 118.665 102.403 L 118.856 102.261 L 119.036 102.062 L 119.079 101.990 L 119.073 101.980 L 119.079 101.990 L 120.298 101.990 L 120.301 101.984 L 120.298 101.990 L 121.253 102.945 L 121.261 102.942 L 121.253 102.945 L 121.243 102.993 L 121.222 103.201 L 121.222 103.259 L 121.248 103.496 L 121.320 103.723 L 121.344 103.777 L 121.464 103.982 L 121.644 104.181 L 121.860 104.338 L 122.021 104.412 L 122.134 104.433 L 122.397 104.457 L 122.659 104.454 L 122.866 104.433 L 122.979 104.412 L 123.140 104.338 L 123.356 104.181 L 123.535 103.982 L 123.656 103.777 L 123.680 103.723 L 123.752 103.496 L 123.778 103.259 L 123.778 103.201 L 123.752 102.964 L 123.680 102.737 L 123.656 102.683 L 123.535 102.478 L 123.377 102.300 L 123.334 102.260 L 123.140 102.122 L 122.923 102.023 L 122.867 102.005 L 122.663 101.962 L 122.605 101.955 L 122.366 101.957 L 122.218 101.987 L 122.215 101.997 L 122.218 101.987 L 121.061 100.829 L 120.997 100.773 L 120.961 100.748 L 120.908 100.715 L 120.811 100.671 L 120.708 100.643 L 120.665 100.636 L 120.580 100.630 L 119.079 100.630 L 119.073 100.640 L 119.079 100.630 L 119.036 100.558 L 118.856 100.359 L 118.665 100.217 L 118.614 100.188 L 118.396 100.093 L 118.163 100.042 L 118.105 100.035 L 117.866 100.037 L 117.604 100.093 L 117.386 100.188 L 117.335 100.217 L 117.166 100.340 L 117.123 100.379 L 116.964 100.558 L 116.831 100.789 L 116.748 101.044 L 116.720 101.310 L 116.800 101.310 L 116.826 101.559 L 116.904 101.798 L 117.029 102.015 L 117.182 102.187 L 117.213 102.215 L 117.382 102.338 L 117.419 102.359 L 117.629 102.451 L 117.854 102.500 L 117.895 102.504 L 118.105 102.504 L 118.146 102.500 L 118.371 102.451 L 118.600 102.349 L 118.787 102.215 L 118.818 102.187 L 118.971 102.015 L 119.032 101.910 L 119.026 101.899 L 119.032 101.910 L 120.331 101.910 L 120.334 101.904 L 120.331 101.910 L 121.344 102.922 L 121.356 102.919 L 121.344 102.922 L 121.326 102.980 L 121.300 103.230 L 121.323 103.459 L 121.332 103.500 L 121.404 103.718 L 121.518 103.918 L 121.542 103.952 L 121.697 104.122 L 121.900 104.269 L 122.110 104.364 L 122.149 104.377 L 122.375 104.423 L 122.625 104.423 L 122.851 104.377 L 122.890 104.364 L 123.100 104.269 L 123.303 104.122 L 123.471 103.935 L 123.596 103.718 L 123.674 103.479 L 123.700 103.230 L 123.674 102.980 L 123.596 102.742 L 123.482 102.542 L 123.458 102.508 L 123.318 102.353 L 123.287 102.325 L 123.100 102.191 L 122.871 102.089 L 122.646 102.040 L 122.605 102.035 L 122.375 102.037 L 122.193 102.074 L 122.190 102.085 L 122.193 102.074 L 121.004 100.886 L 120.920 100.816 L 120.838 100.769 L 120.750 100.735 L 120.689 100.720 L 120.580 100.710 L 119.032 100.710 L 119.026 100.721 L 119.032 100.710 L 118.971 100.605 L 118.818 100.433 L 118.787 100.405 L 118.600 100.271 L 118.371 100.169 L 118.146 100.120 L 118.105 100.115 L 117.875 100.117 L 117.629 100.169 L 117.419 100.261 L 117.382 100.282 L 117.213 100.405 L 117.182 100.433 L 117.029 100.605 L 116.904 100.822 L 116.826 101.061 L 116.800 101.310 L 116.880 101.310 L 116.904 101.543 L 116.977 101.766 L 117.094 101.968 L 117.242 102.133 L 117.260 102.150 L 117.451 102.286 L 117.654 102.375 L 117.883 102.424 L 118.117 102.424 L 118.334 102.378 L 118.560 102.280 L 118.758 102.133 L 118.906 101.968 L 118.986 101.830 L 120.365 101.830 L 121.435 102.901 L 121.404 102.997 L 121.380 103.230 L 121.408 103.475 L 121.477 103.686 L 121.587 103.878 L 121.751 104.062 L 121.940 104.200 L 122.142 104.291 L 122.383 104.344 L 122.629 104.342 L 122.846 104.295 L 123.060 104.200 L 123.249 104.062 L 123.406 103.888 L 123.523 103.686 L 123.596 103.463 L 123.620 103.230 L 123.596 102.997 L 123.523 102.774 L 123.406 102.572 L 123.240 102.390 L 123.060 102.260 L 122.846 102.165 L 122.605 102.115 L 122.383 102.116 L 122.167 102.161 L 120.948 100.942 L 120.878 100.884 L 120.808 100.843 L 120.750 100.819 L 120.671 100.798 L 120.580 100.790 L 118.986 100.790 L 118.906 100.652 L 118.758 100.487 L 118.560 100.340 L 118.334 100.242 L 118.117 100.196 L 117.883 100.196 L 117.654 100.245 L 117.451 100.334 L 117.260 100.470 L 117.242 100.487 L 117.094 100.652 L 116.977 100.854 L 116.904 101.077 L 116.880 101.310" fill="none" stroke="#000000" stroke-width="0.2"/>
  <path d="M 116.720 93.690 L 116.748 93.956 L 116.831 94.211 L 116.964 94.442 L 117.123 94.620 L 117.166 94.660 L 117.360 94.798 L 117.577 94.897 L 117.633 94.915 L 117.837 94.958 L 117.895 94.964 L 118.134 94.963 L 118.367 94.915 L 118.423 94.897 L 118.640 94.798 L 118.834 94.660 L 118.877 94.620 L 119.036 94.442 L 119.079 94.370 L 119.073 94.360 L 119.079 94.370 L 123.070 94.370 L 123.076 94.359 L 123.070 94.370 L 123.159 94.522 L 123.339 94.721 L 123.555 94.878 L 123.772 94.977 L 123.852 95.000 L 124.538 95.000 L 124.618 94.977 L 124.809 94.892 L 124.860 94.863 L 125.051 94.721 L 125.231 94.522 L 125.351 94.317 L 125.375 94.263 L 125.447 94.036 L 125.475 93.770 L 125.447 93.504 L 125.375 93.277 L 125.351 93.223 L 125.231 93.018 L 125.051 92.819 L 124.860 92.677 L 124.809 92.648 L 124.618 92.563 L 124.538 92.540 L 123.852 92.540 L 123.799 92.553 L 123.555 92.662 L 123.361 92.800 L 123.318 92.840 L 123.178 92.995 L 123.166 93.010 L 123.169 93.017 L 123.166 93.010 L 119.079 93.010 L 119.073 93.020 L 119.079 93.010 L 119.036 92.938 L 118.877 92.760 L 118.834 92.720 L 118.640 92.582 L 118.396 92.473 L 118.163 92.422 L 118.105 92.415 L 117.866 92.417 L 117.604 92.473 L 117.360 92.582 L 117.166 92.720 L 117.123 92.760 L 116.983 92.915 L 116.949 92.962 L 116.831 93.169 L 116.748 93.424 L 116.720 93.690 L 116.800 93.690 L 116.823 93.919 L 116.832 93.960 L 116.904 94.178 L 117.018 94.378 L 117.042 94.412 L 117.182 94.567 L 117.213 94.595 L 117.400 94.729 L 117.610 94.824 L 117.649 94.837 L 117.875 94.883 L 118.105 94.884 L 118.146 94.880 L 118.351 94.837 L 118.390 94.824 L 118.600 94.729 L 118.803 94.582 L 118.971 94.395 L 119.032 94.290 L 119.026 94.279 L 119.032 94.290 L 123.116 94.290 L 123.122 94.279 L 123.116 94.290 L 123.213 94.458 L 123.237 94.492 L 123.392 94.662 L 123.595 94.809 L 123.824 94.911 L 124.049 94.960 L 124.090 94.965 L 124.320 94.963 L 124.546 94.917 L 124.585 94.904 L 124.795 94.809 L 124.998 94.662 L 125.153 94.492 L 125.177 94.458 L 125.291 94.258 L 125.369 94.019 L 125.395 93.770 L 125.369 93.520 L 125.291 93.282 L 125.166 93.065 L 124.998 92.878 L 124.795 92.731 L 124.566 92.629 L 124.341 92.580 L 124.300 92.575 L 124.070 92.577 L 123.844 92.623 L 123.805 92.636 L 123.614 92.721 L 123.577 92.742 L 123.392 92.878 L 123.237 93.048 L 123.208 93.090 L 123.212 93.097 L 123.208 93.090 L 119.032 93.090 L 119.026 93.101 L 119.032 93.090 L 118.971 92.985 L 118.818 92.813 L 118.787 92.785 L 118.600 92.651 L 118.371 92.549 L 118.146 92.500 L 118.105 92.495 L 117.875 92.497 L 117.629 92.549 L 117.419 92.641 L 117.382 92.662 L 117.213 92.785 L 117.182 92.813 L 117.029 92.985 L 116.904 93.202 L 116.826 93.441 L 116.800 93.690 L 116.880 93.690 L 116.904 93.457 L 116.977 93.234 L 117.094 93.032 L 117.242 92.867 L 117.260 92.850 L 117.451 92.714 L 117.654 92.625 L 117.883 92.576 L 118.117 92.576 L 118.334 92.622 L 118.560 92.720 L 118.758 92.867 L 118.906 93.032 L 118.986 93.170 L 123.254 93.170 L 123.297 93.102 L 123.446 92.938 L 123.646 92.794 L 123.849 92.705 L 124.066 92.658 L 124.090 92.655 L 124.324 92.658 L 124.541 92.705 L 124.755 92.800 L 124.944 92.938 L 125.093 93.102 L 125.108 93.122 L 125.223 93.326 L 125.290 93.537 L 125.315 93.770 L 125.290 94.003 L 125.218 94.226 L 125.101 94.428 L 124.953 94.593 L 124.935 94.610 L 124.744 94.746 L 124.541 94.835 L 124.312 94.884 L 124.078 94.884 L 123.861 94.838 L 123.635 94.740 L 123.446 94.602 L 123.297 94.438 L 123.178 94.237 L 123.166 94.210 L 118.986 94.210 L 118.906 94.348 L 118.758 94.513 L 118.560 94.660 L 118.346 94.755 L 118.129 94.802 L 118.105 94.805 L 117.871 94.802 L 117.654 94.755 L 117.440 94.660 L 117.251 94.522 L 117.102 94.358 L 117.087 94.338 L 116.972 94.134 L 116.904 93.923 L 116.880 93.690" fill="none" stroke="#000000" stroke-width="0.2"/>
  <path d="M 122.915 91.230 L 122.943 91.496 L 123.015 91.723 L 123.039 91.777 L 123.159 91.982 L 123.339 92.181 L 123.530 92.323 L 123.581 92.352 L 123.772 92.437 L 123.852 92.460 L 124.538 92.460 L 124.618 92.437 L 124.835 92.338 L 125.051 92.181 L 125.231 91.982 L 125.274 91.910 L 125.268 91.900 L 125.274 91.910 L 127.320 91.910 L 127.343 91.887 L 127.320 91.910 L 127.320 93.500 L 127.329 93.605 L 127.340 93.659 L 127.363 93.734 L 127.384 93.785 L 127.421 93.854 L 127.451 93.900 L 127.519 93.981 L 127.789 94.251 L 127.853 94.306 L 127.942 94.365 L 128.039 94.409 L 128.081 94.423 L 128.185 94.444 L 128.270 94.450 L 130.736 94.450 L 130.742 94.440 L 130.736 94.450 L 130.779 94.522 L 130.938 94.700 L 130.981 94.740 L 131.175 94.878 L 131.392 94.977 L 131.472 95.000 L 132.158 95.000 L 132.238 94.977 L 132.455 94.878 L 132.671 94.721 L 132.851 94.522 L 132.894 94.450 L 132.888 94.440 L 132.894 94.450 L 135.868 94.450 L 135.871 94.444 L 135.868 94.450 L 140.253 98.835 L 140.261 98.832 L 140.253 98.835 L 140.243 98.883 L 140.222 99.091 L 140.222 99.149 L 140.248 99.386 L 140.331 99.641 L 140.449 99.848 L 140.483 99.895 L 140.644 100.071 L 140.820 100.201 L 140.829 100.197 L 140.820 100.201 L 140.820 104.020 L 140.863 104.105 L 140.820 104.020 L 140.640 103.892 L 140.396 103.783 L 140.134 103.727 L 139.866 103.727 L 139.633 103.775 L 139.577 103.793 L 139.386 103.878 L 139.335 103.907 L 139.144 104.049 L 138.964 104.248 L 138.831 104.479 L 138.756 104.706 L 138.743 104.763 L 138.722 104.971 L 138.722 105.029 L 138.748 105.266 L 138.820 105.493 L 138.844 105.547 L 138.964 105.752 L 139.123 105.930 L 139.166 105.970 L 139.360 106.108 L 139.577 106.207 L 139.633 106.225 L 139.866 106.273 L 140.105 106.274 L 140.163 106.268 L 140.396 106.217 L 140.640 106.108 L 140.834 105.970 L 140.877 105.930 L 141.036 105.752 L 141.079 105.680 L 141.073 105.671 L 141.079 105.680 L 141.500 105.680 L 141.605 105.671 L 141.659 105.660 L 141.760 105.628 L 141.854 105.579 L 141.900 105.549 L 141.981 105.481 L 142.049 105.400 L 142.079 105.354 L 142.116 105.285 L 142.137 105.234 L 142.167 105.133 L 142.180 105.000 L 142.180 100.201 L 142.171 100.197 L 142.180 100.201 L 142.356 100.071 L 142.536 99.872 L 142.669 99.641 L 142.744 99.414 L 142.757 99.357 L 142.778 99.149 L 142.778 99.091 L 142.752 98.854 L 142.669 98.599 L 142.536 98.368 L 142.377 98.190 L 142.334 98.150 L 142.165 98.027 L 142.114 97.998 L 141.896 97.903 L 141.634 97.847 L 141.366 97.847 L 141.218 97.877 L 141.215 97.887 L 141.218 97.877 L 136.631 93.289 L 136.567 93.233 L 136.478 93.175 L 136.381 93.131 L 136.278 93.103 L 136.235 93.096 L 136.150 93.090 L 132.894 93.090 L 132.888 93.100 L 132.894 93.090 L 132.851 93.018 L 132.692 92.840 L 132.649 92.800 L 132.455 92.662 L 132.238 92.563 L 132.158 92.540 L 131.472 92.540 L 131.392 92.563 L 131.175 92.662 L 130.959 92.819 L 130.779 93.018 L 130.736 93.090 L 130.742 93.100 L 130.736 93.090 L 128.680 93.090 L 128.657 93.113 L 128.680 93.090 L 128.680 91.500 L 128.667 91.367 L 128.637 91.266 L 128.616 91.215 L 128.565 91.122 L 128.499 91.040 L 128.195 90.734 L 128.111 90.668 L 128.058 90.635 L 127.961 90.591 L 127.858 90.563 L 127.815 90.556 L 127.730 90.550 L 125.274 90.550 L 125.268 90.560 L 125.274 90.550 L 125.231 90.478 L 125.051 90.279 L 124.860 90.137 L 124.809 90.108 L 124.674 90.048 L 124.561 90.027 L 124.298 90.003 L 124.036 90.006 L 123.829 90.027 L 123.716 90.048 L 123.555 90.122 L 123.339 90.279 L 123.159 90.478 L 123.039 90.683 L 123.015 90.737 L 122.943 90.964 L 122.915 91.230 L 122.995 91.230 L 123.021 91.479 L 123.091 91.699 L 123.108 91.737 L 123.224 91.935 L 123.392 92.122 L 123.595 92.269 L 123.824 92.371 L 124.049 92.420 L 124.090 92.424 L 124.300 92.424 L 124.341 92.420 L 124.566 92.371 L 124.795 92.269 L 124.982 92.135 L 125.013 92.107 L 125.166 91.935 L 125.227 91.830 L 125.221 91.819 L 125.227 91.830 L 127.400 91.830 L 127.423 91.807 L 127.400 91.830 L 127.400 93.500 L 127.409 93.598 L 127.416 93.636 L 127.439 93.711 L 127.454 93.747 L 127.491 93.816 L 127.513 93.849 L 127.576 93.924 L 127.846 94.194 L 127.905 94.246 L 127.984 94.297 L 128.100 94.345 L 128.192 94.364 L 128.270 94.370 L 130.783 94.370 L 130.789 94.359 L 130.783 94.370 L 130.844 94.475 L 130.997 94.647 L 131.028 94.675 L 131.197 94.798 L 131.234 94.819 L 131.444 94.911 L 131.669 94.960 L 131.710 94.965 L 131.940 94.963 L 132.166 94.917 L 132.205 94.904 L 132.415 94.809 L 132.602 94.675 L 132.633 94.647 L 132.786 94.475 L 132.847 94.370 L 132.841 94.359 L 132.847 94.370 L 135.901 94.370 L 135.904 94.364 L 135.901 94.370 L 140.344 98.812 L 140.356 98.809 L 140.344 98.812 L 140.326 98.870 L 140.301 99.099 L 140.301 99.141 L 140.326 99.369 L 140.404 99.608 L 140.529 99.825 L 140.682 99.997 L 140.713 100.025 L 140.882 100.148 L 140.900 100.159 L 140.909 100.155 L 140.900 100.159 L 140.900 104.214 L 140.951 104.346 L 140.900 104.214 L 140.803 104.108 L 140.600 103.961 L 140.371 103.859 L 140.146 103.810 L 140.105 103.805 L 139.875 103.807 L 139.629 103.859 L 139.400 103.961 L 139.213 104.095 L 139.182 104.123 L 139.029 104.295 L 138.913 104.493 L 138.896 104.531 L 138.826 104.750 L 138.801 104.979 L 138.801 105.021 L 138.826 105.249 L 138.904 105.488 L 139.029 105.705 L 139.182 105.877 L 139.213 105.905 L 139.382 106.028 L 139.419 106.049 L 139.629 106.141 L 139.854 106.190 L 139.895 106.195 L 140.125 106.193 L 140.371 106.141 L 140.600 106.039 L 140.803 105.892 L 140.971 105.705 L 141.032 105.600 L 141.026 105.590 L 141.032 105.600 L 141.500 105.600 L 141.598 105.591 L 141.636 105.584 L 141.730 105.554 L 141.816 105.509 L 141.849 105.487 L 141.924 105.424 L 141.987 105.349 L 142.009 105.316 L 142.054 105.230 L 142.088 105.117 L 142.100 105.000 L 142.100 100.159 L 142.091 100.155 L 142.100 100.159 L 142.118 100.148 L 142.303 100.012 L 142.458 99.842 L 142.482 99.808 L 142.596 99.608 L 142.668 99.390 L 142.677 99.349 L 142.700 99.120 L 142.674 98.870 L 142.596 98.632 L 142.471 98.415 L 142.303 98.228 L 142.100 98.081 L 141.890 97.986 L 141.851 97.973 L 141.625 97.927 L 141.395 97.925 L 141.354 97.930 L 141.193 97.964 L 141.190 97.975 L 141.193 97.964 L 136.574 93.346 L 136.490 93.276 L 136.436 93.243 L 136.350 93.205 L 136.259 93.180 L 136.150 93.170 L 132.847 93.170 L 132.841 93.181 L 132.847 93.170 L 132.786 93.065 L 132.633 92.893 L 132.602 92.865 L 132.433 92.742 L 132.396 92.721 L 132.186 92.629 L 131.961 92.580 L 131.920 92.575 L 131.690 92.577 L 131.464 92.623 L 131.425 92.636 L 131.215 92.731 L 131.028 92.865 L 130.997 92.893 L 130.844 93.065 L 130.783 93.170 L 130.789 93.181 L 130.783 93.170 L 128.600 93.170 L 128.577 93.193 L 128.600 93.170 L 128.600 91.500 L 128.588 91.383 L 128.561 91.289 L 128.546 91.253 L 128.499 91.167 L 128.437 91.090 L 128.143 90.795 L 128.070 90.736 L 127.988 90.689 L 127.900 90.655 L 127.839 90.640 L 127.730 90.630 L 125.227 90.630 L 125.221 90.641 L 125.227 90.630 L 125.166 90.525 L 125.013 90.353 L 124.982 90.325 L 124.795 90.191 L 124.585 90.096 L 124.546 90.083 L 124.320 90.037 L 124.090 90.035 L 124.049 90.040 L 123.824 90.089 L 123.614 90.181 L 123.577 90.202 L 123.392 90.338 L 123.237 90.508 L 123.213 90.542 L 123.099 90.742 L 123.021 90.980 L 122.995 91.230 L 123.075 91.230 L 123.099 90.997 L 123.172 90.774 L 123.289 90.572 L 123.446 90.398 L 123.635 90.260 L 123.849 90.165 L 124.078 90.116 L 124.300 90.115 L 124.541 90.165 L 124.766 90.267 L 124.953 90.407 L 125.101 90.572 L 125.181 90.710 L 127.730 90.710 L 127.821 90.718 L 127.900 90.739 L 127.957 90.763 L 128.028 90.804 L 128.091 90.856 L 128.376 91.141 L 128.432 91.211 L 128.475 91.290 L 128.510 91.399 L 128.520 91.500 L 128.520 93.250 L 130.829 93.250 L 130.909 93.112 L 131.057 92.947 L 131.255 92.800 L 131.481 92.702 L 131.698 92.656 L 131.920 92.655 L 132.161 92.705 L 132.386 92.807 L 132.573 92.947 L 132.721 93.112 L 132.801 93.250 L 136.150 93.250 L 136.241 93.258 L 136.320 93.279 L 136.377 93.303 L 136.448 93.344 L 136.518 93.402 L 141.167 98.051 L 141.383 98.006 L 141.605 98.005 L 141.834 98.052 L 142.060 98.150 L 142.249 98.288 L 142.406 98.462 L 142.523 98.664 L 142.596 98.887 L 142.620 99.120 L 142.592 99.365 L 142.523 99.576 L 142.413 99.768 L 142.249 99.952 L 142.071 100.083 L 142.020 100.108 L 142.020 105.000 L 142.010 105.101 L 141.984 105.188 L 141.938 105.279 L 141.868 105.368 L 141.779 105.438 L 141.688 105.484 L 141.601 105.510 L 141.512 105.519 L 140.986 105.520 L 140.906 105.658 L 140.749 105.832 L 140.560 105.970 L 140.346 106.065 L 140.105 106.114 L 139.883 106.114 L 139.654 106.065 L 139.440 105.970 L 139.251 105.832 L 139.094 105.658 L 138.983 105.467 L 138.972 105.444 L 138.902 105.220 L 138.880 105.000 L 138.904 104.767 L 138.977 104.544 L 139.087 104.352 L 139.251 104.168 L 139.451 104.024 L 139.654 103.935 L 139.883 103.886 L 140.117 103.886 L 140.334 103.932 L 140.560 104.030 L 140.758 104.177 L 140.906 104.342 L 140.980 104.470 L 140.980 100.108 L 140.929 100.083 L 140.742 99.943 L 140.594 99.778 L 140.477 99.576 L 140.404 99.353 L 140.381 99.133 L 140.402 98.900 L 140.435 98.791 L 135.935 94.290 L 132.801 94.290 L 132.721 94.428 L 132.573 94.593 L 132.375 94.740 L 132.149 94.838 L 131.932 94.884 L 131.710 94.885 L 131.469 94.835 L 131.244 94.733 L 131.057 94.593 L 130.909 94.428 L 130.829 94.290 L 128.270 94.290 L 128.179 94.282 L 128.100 94.261 L 128.026 94.229 L 127.957 94.185 L 127.902 94.138 L 127.632 93.868 L 127.575 93.798 L 127.525 93.710 L 127.493 93.613 L 127.480 93.500 L 127.480 91.750 L 125.181 91.750 L 125.101 91.888 L 124.953 92.053 L 124.755 92.200 L 124.529 92.298 L 124.312 92.344 L 124.078 92.344 L 123.849 92.295 L 123.635 92.200 L 123.446 92.062 L 123.297 91.898 L 123.282 91.878 L 123.167 91.674 L 123.099 91.463 L 123.075 91.230" fill="none" stroke="#000000" stroke-width="0.2"/>
  <path d="M 122.915 96.310 L 122.943 96.576 L 123.026 96.831 L 123.159 97.062 L 123.339 97.261 L 123.555 97.418 L 123.772 97.517 L 123.828 97.535 L 124.032 97.578 L 124.090 97.584 L 124.329 97.583 L 124.476 97.553 L 124.480 97.543 L 124.476 97.553 L 125.320 98.397 L 125.326 98.394 L 125.320 98.397 L 125.321 103.027 L 125.333 103.133 L 125.362 103.234 L 125.383 103.285 L 125.420 103.354 L 125.451 103.400 L 125.519 103.481 L 125.600 103.549 L 125.646 103.579 L 125.740 103.628 L 125.841 103.660 L 125.894 103.671 L 126.000 103.680 L 132.500 103.680 L 132.585 103.674 L 132.628 103.667 L 132.731 103.639 L 132.828 103.595 L 132.917 103.536 L 132.981 103.481 L 135.282 101.180 L 135.279 101.174 L 135.282 101.180 L 136.820 101.180 L 136.843 101.157 L 136.820 101.180 L 136.820 108.500 L 136.833 108.633 L 136.872 108.760 L 136.920 108.854 L 136.951 108.900 L 137.001 108.960 L 137.040 108.999 L 137.100 109.049 L 137.146 109.079 L 137.240 109.128 L 137.367 109.167 L 137.500 109.180 L 145.000 109.180 L 145.133 109.167 L 145.234 109.137 L 145.285 109.116 L 145.354 109.079 L 145.400 109.049 L 145.460 108.999 L 145.499 108.960 L 145.549 108.900 L 145.579 108.854 L 145.616 108.785 L 145.637 108.734 L 145.667 108.633 L 145.680 108.500 L 145.680 88.500 L 145.667 88.367 L 145.637 88.266 L 145.616 88.215 L 145.579 88.146 L 145.549 88.100 L 145.481 88.019 L 145.400 87.951 L 145.354 87.920 L 145.285 87.883 L 145.234 87.862 L 145.159 87.840 L 145.105 87.829 L 145.000 87.820 L 141.592 87.820 L 141.589 87.826 L 141.592 87.820 L 137.747 83.975 L 137.738 83.978 L 137.747 83.975 L 137.757 83.927 L 137.780 83.690 L 137.757 83.453 L 137.747 83.405 L 137.738 83.402 L 137.747 83.405 L 141.981 79.171 L 142.036 79.107 L 142.095 79.018 L 142.139 78.921 L 142.153 78.879 L 142.174 78.775 L 142.180 78.690 L 142.180 75.330 L 142.157 75.307 L 142.180 75.330 L 144.350 75.330 L 144.405 75.325 L 144.457 75.309 L 144.506 75.283 L 144.548 75.248 L 144.583 75.206 L 144.609 75.157 L 144.625 75.105 L 144.630 75.050 L 144.630 68.950 L 144.625 68.895 L 144.609 68.843 L 144.583 68.794 L 144.548 68.752 L 144.506 68.717 L 144.457 68.691 L 144.405 68.675 L 144.350 68.670 L 138.650 68.670 L 138.595 68.675 L 138.543 68.691 L 138.494 68.717 L 138.452 68.752 L 138.417 68.794 L 138.391 68.843 L 138.375 68.895 L 138.370 68.950 L 138.370 75.050 L 138.375 75.105 L 138.391 75.157 L 138.417 75.206 L 138.452 75.248 L 138.494 75.283 L 138.543 75.309 L 138.595 75.325 L 138.650 75.330 L 140.820 75.330 L 140.843 75.307 L 140.820 75.330 L 140.820 78.408 L 140.826 78.411 L 140.820 78.408 L 136.781 82.447 L 136.785 82.457 L 136.781 82.447 L 136.634 82.417 L 136.395 82.416 L 136.337 82.422 L 136.133 82.465 L 136.077 82.483 L 135.860 82.582 L 135.666 82.720 L 135.623 82.760 L 135.464 82.938 L 135.344 83.143 L 135.320 83.197 L 135.256 83.396 L 135.243 83.453 L 135.220 83.690 L 135.243 83.927 L 135.253 83.975 L 135.261 83.978 L 135.253 83.975 L 131.812 87.416 L 131.815 87.422 L 131.812 87.416 L 131.682 87.417 L 131.419 87.473 L 131.175 87.582 L 130.959 87.739 L 130.779 87.938 L 130.646 88.169 L 130.563 88.424 L 130.535 88.690 L 130.563 88.956 L 130.635 89.183 L 130.659 89.237 L 130.779 89.442 L 130.938 89.620 L 130.981 89.660 L 131.175 89.798 L 131.392 89.897 L 131.472 89.920 L 132.158 89.920 L 132.238 89.897 L 132.455 89.798 L 132.671 89.641 L 132.851 89.442 L 132.984 89.211 L 133.059 88.984 L 133.072 88.927 L 133.095 88.690 L 133.072 88.453 L 133.059 88.396 L 132.995 88.197 L 132.984 88.168 L 132.970 88.165 L 132.984 88.168 L 136.218 84.933 L 136.215 84.923 L 136.218 84.933 L 136.366 84.963 L 136.605 84.964 L 136.663 84.958 L 136.781 84.933 L 136.785 84.923 L 136.781 84.933 L 140.829 88.981 L 140.893 89.036 L 140.982 89.095 L 141.079 89.139 L 141.121 89.153 L 141.225 89.174 L 141.310 89.180 L 144.320 89.180 L 144.343 89.157 L 144.320 89.180 L 144.320 107.820 L 144.343 107.843 L 144.320 107.820 L 138.180 107.820 L 138.157 107.843 L 138.180 107.820 L 138.180 100.500 L 138.171 100.394 L 138.160 100.341 L 138.128 100.240 L 138.079 100.146 L 138.049 100.100 L 137.981 100.019 L 137.900 99.951 L 137.854 99.920 L 137.785 99.883 L 137.734 99.862 L 137.659 99.840 L 137.605 99.829 L 137.500 99.820 L 135.000 99.820 L 134.915 99.826 L 134.872 99.833 L 134.811 99.847 L 134.711 99.885 L 134.619 99.938 L 134.583 99.963 L 134.519 100.019 L 132.218 102.320 L 132.221 102.326 L 132.218 102.320 L 126.680 102.320 L 126.657 102.343 L 126.680 102.320 L 126.680 98.115 L 126.667 97.982 L 126.637 97.881 L 126.616 97.830 L 126.565 97.737 L 126.499 97.655 L 125.442 96.595 L 125.433 96.598 L 125.442 96.595 L 125.452 96.547 L 125.475 96.310 L 125.447 96.044 L 125.364 95.789 L 125.246 95.582 L 125.212 95.535 L 125.072 95.380 L 125.029 95.340 L 124.835 95.202 L 124.591 95.093 L 124.538 95.080 L 123.852 95.080 L 123.799 95.093 L 123.555 95.202 L 123.361 95.340 L 123.318 95.380 L 123.159 95.558 L 123.039 95.763 L 123.015 95.817 L 122.943 96.044 L 122.915 96.310 L 122.995 96.310 L 123.021 96.559 L 123.099 96.798 L 123.224 97.015 L 123.392 97.202 L 123.595 97.349 L 123.805 97.444 L 123.844 97.457 L 124.070 97.503 L 124.300 97.504 L 124.341 97.500 L 124.502 97.466 L 124.505 97.455 L 124.502 97.466 L 125.400 98.364 L 125.406 98.361 L 125.400 98.364 L 125.401 103.020 L 125.412 103.117 L 125.439 103.211 L 125.491 103.316 L 125.513 103.349 L 125.576 103.424 L 125.651 103.487 L 125.683 103.509 L 125.770 103.554 L 125.864 103.584 L 125.902 103.591 L 126.000 103.600 L 132.500 103.600 L 132.609 103.590 L 132.700 103.565 L 132.786 103.527 L 132.865 103.476 L 132.924 103.424 L 135.249 101.100 L 135.246 101.094 L 135.249 101.100 L 136.900 101.100 L 136.923 101.077 L 136.900 101.100 L 136.900 108.500 L 136.912 108.617 L 136.946 108.730 L 136.991 108.816 L 137.013 108.849 L 137.076 108.924 L 137.151 108.987 L 137.183 109.009 L 137.270 109.054 L 137.383 109.088 L 137.500 109.100 L 145.000 109.100 L 145.117 109.088 L 145.211 109.061 L 145.247 109.046 L 145.316 109.009 L 145.349 108.987 L 145.424 108.924 L 145.487 108.849 L 145.509 108.816 L 145.546 108.747 L 145.561 108.711 L 145.588 108.617 L 145.600 108.500 L 145.600 88.500 L 145.588 88.383 L 145.561 88.289 L 145.546 88.253 L 145.509 88.183 L 145.487 88.151 L 145.424 88.076 L 145.349 88.013 L 145.316 87.991 L 145.247 87.954 L 145.211 87.939 L 145.117 87.912 L 145.020 87.901 L 141.558 87.900 L 141.556 87.906 L 141.558 87.900 L 137.656 83.998 L 137.647 84.001 L 137.656 83.998 L 137.674 83.939 L 137.700 83.690 L 137.674 83.441 L 137.656 83.382 L 137.647 83.379 L 137.656 83.382 L 141.924 79.114 L 141.994 79.030 L 142.041 78.948 L 142.075 78.860 L 142.090 78.799 L 142.100 78.690 L 142.100 75.250 L 142.077 75.227 L 142.100 75.250 L 144.350 75.250 L 144.389 75.246 L 144.427 75.235 L 144.461 75.216 L 144.491 75.191 L 144.516 75.161 L 144.535 75.127 L 144.546 75.089 L 144.550 75.050 L 144.550 68.950 L 144.546 68.911 L 144.535 68.873 L 144.516 68.839 L 144.491 68.809 L 144.461 68.784 L 144.427 68.765 L 144.389 68.754 L 144.350 68.750 L 138.650 68.750 L 138.611 68.754 L 138.573 68.765 L 138.539 68.784 L 138.509 68.809 L 138.484 68.839 L 138.465 68.873 L 138.454 68.911 L 138.450 68.950 L 138.450 75.050 L 138.454 75.089 L 138.465 75.127 L 138.484 75.161 L 138.509 75.191 L 138.539 75.216 L 138.573 75.235 L 138.611 75.246 L 138.650 75.250 L 140.900 75.250 L 140.923 75.227 L 140.900 75.250 L 140.900 78.441 L 140.906 78.444 L 140.900 78.441 L 136.807 82.534 L 136.810 82.545 L 136.807 82.534 L 136.646 82.500 L 136.605 82.495 L 136.375 82.497 L 136.149 82.543 L 136.110 82.556 L 135.900 82.651 L 135.697 82.798 L 135.542 82.968 L 135.518 83.002 L 135.404 83.202 L 135.332 83.420 L 135.323 83.461 L 135.300 83.690 L 135.326 83.939 L 135.344 83.998 L 135.353 84.000 L 135.344 83.998 L 131.845 87.496 L 131.847 87.503 L 131.845 87.496 L 131.690 87.496 L 131.444 87.549 L 131.215 87.651 L 131.012 87.798 L 130.844 87.985 L 130.719 88.202 L 130.641 88.440 L 130.615 88.690 L 130.638 88.919 L 130.647 88.960 L 130.719 89.178 L 130.833 89.378 L 130.857 89.412 L 131.012 89.582 L 131.215 89.729 L 131.444 89.831 L 131.669 89.880 L 131.710 89.885 L 131.940 89.883 L 132.166 89.837 L 132.205 89.824 L 132.415 89.729 L 132.618 89.582 L 132.786 89.395 L 132.911 89.178 L 132.983 88.960 L 132.992 88.919 L 133.015 88.690 L 132.992 88.461 L 132.983 88.420 L 132.911 88.202 L 132.885 88.154 L 132.871 88.151 L 132.885 88.154 L 136.193 84.846 L 136.190 84.836 L 136.193 84.846 L 136.375 84.883 L 136.605 84.884 L 136.646 84.880 L 136.807 84.846 L 136.810 84.835 L 136.807 84.846 L 140.886 88.924 L 140.945 88.976 L 141.024 89.027 L 141.140 89.075 L 141.232 89.094 L 141.310 89.100 L 144.400 89.100 L 144.423 89.077 L 144.400 89.100 L 144.400 107.900 L 144.423 107.923 L 144.400 107.900 L 138.100 107.900 L 138.077 107.923 L 138.100 107.900 L 138.100 100.500 L 138.091 100.402 L 138.084 100.364 L 138.054 100.270 L 138.009 100.183 L 137.987 100.151 L 137.924 100.076 L 137.849 100.013 L 137.816 99.991 L 137.747 99.954 L 137.711 99.939 L 137.636 99.916 L 137.598 99.909 L 137.500 99.900 L 135.000 99.900 L 134.891 99.910 L 134.830 99.925 L 134.742 99.959 L 134.660 100.006 L 134.576 100.076 L 132.251 102.400 L 132.254 102.406 L 132.251 102.400 L 126.600 102.400 L 126.577 102.423 L 126.600 102.400 L 126.600 98.115 L 126.591 98.017 L 126.584 97.979 L 126.561 97.904 L 126.546 97.868 L 126.509 97.798 L 126.487 97.766 L 126.424 97.691 L 125.351 96.618 L 125.339 96.621 L 125.351 96.618 L 125.369 96.559 L 125.394 96.331 L 125.394 96.289 L 125.369 96.060 L 125.299 95.841 L 125.282 95.803 L 125.166 95.605 L 124.998 95.418 L 124.795 95.271 L 124.585 95.176 L 124.546 95.163 L 124.320 95.117 L 124.070 95.117 L 123.824 95.169 L 123.614 95.261 L 123.577 95.282 L 123.392 95.418 L 123.237 95.588 L 123.213 95.622 L 123.108 95.803 L 123.091 95.841 L 123.021 96.060 L 122.995 96.310 L 123.075 96.310 L 123.099 96.543 L 123.172 96.766 L 123.289 96.968 L 123.446 97.142 L 123.635 97.280 L 123.861 97.378 L 124.090 97.425 L 124.312 97.424 L 124.528 97.379 L 125.480 98.330 L 125.480 103.000 L 125.493 103.113 L 125.520 103.199 L 125.562 103.279 L 125.632 103.368 L 125.721 103.438 L 125.801 103.480 L 125.887 103.507 L 126.000 103.520 L 132.500 103.520 L 132.591 103.512 L 132.670 103.491 L 132.744 103.459 L 132.813 103.415 L 132.868 103.368 L 135.215 101.020 L 136.980 101.020 L 136.980 108.500 L 136.990 108.601 L 137.020 108.699 L 137.075 108.798 L 137.132 108.868 L 137.202 108.925 L 137.301 108.980 L 137.399 109.010 L 137.500 109.020 L 145.000 109.020 L 145.101 109.010 L 145.210 108.975 L 145.298 108.925 L 145.368 108.868 L 145.425 108.798 L 145.484 108.688 L 145.510 108.601 L 145.520 108.500 L 145.520 88.500 L 145.510 88.399 L 145.484 88.312 L 145.425 88.202 L 145.368 88.132 L 145.289 88.068 L 145.188 88.016 L 145.101 87.990 L 145.012 87.981 L 141.525 87.980 L 137.565 84.019 L 137.596 83.923 L 137.620 83.690 L 137.596 83.457 L 137.565 83.361 L 141.868 79.058 L 141.926 78.988 L 141.967 78.918 L 141.991 78.860 L 142.012 78.781 L 142.020 78.690 L 142.020 75.170 L 144.350 75.170 L 144.373 75.168 L 144.417 75.150 L 144.450 75.117 L 144.461 75.096 L 144.470 75.050 L 144.470 68.950 L 144.461 68.904 L 144.450 68.883 L 144.417 68.850 L 144.373 68.832 L 144.350 68.830 L 138.650 68.830 L 138.627 68.832 L 138.583 68.850 L 138.550 68.883 L 138.539 68.904 L 138.530 68.950 L 138.532 75.073 L 138.539 75.096 L 138.565 75.135 L 138.604 75.161 L 138.650 75.170 L 140.980 75.170 L 140.980 78.475 L 136.833 82.621 L 136.617 82.576 L 136.395 82.575 L 136.166 82.622 L 135.940 82.720 L 135.751 82.858 L 135.587 83.042 L 135.477 83.234 L 135.408 83.445 L 135.380 83.690 L 135.404 83.923 L 135.435 84.019 L 131.878 87.577 L 131.698 87.576 L 131.469 87.625 L 131.255 87.720 L 131.066 87.858 L 130.909 88.032 L 130.792 88.234 L 130.719 88.457 L 130.695 88.690 L 130.723 88.935 L 130.792 89.146 L 130.902 89.338 L 131.066 89.522 L 131.255 89.660 L 131.469 89.755 L 131.710 89.805 L 131.932 89.804 L 132.149 89.758 L 132.375 89.660 L 132.564 89.522 L 132.721 89.348 L 132.838 89.146 L 132.907 88.935 L 132.935 88.690 L 132.912 88.470 L 132.838 88.234 L 132.785 88.141 L 136.167 84.759 L 136.395 84.805 L 136.617 84.804 L 136.833 84.759 L 140.942 88.868 L 140.997 88.915 L 141.066 88.959 L 141.158 88.997 L 141.238 89.015 L 141.310 89.020 L 144.480 89.020 L 144.480 107.980 L 138.020 107.980 L 138.020 100.500 L 138.010 100.399 L 137.984 100.312 L 137.925 100.202 L 137.868 100.132 L 137.798 100.075 L 137.688 100.016 L 137.601 99.990 L 137.500 99.980 L 135.000 99.980 L 134.909 99.988 L 134.830 100.009 L 134.772 100.033 L 134.702 100.074 L 134.632 100.132 L 132.285 102.480 L 126.520 102.480 L 126.520 98.115 L 126.507 98.002 L 126.484 97.927 L 126.438 97.836 L 126.368 97.747 L 125.260 96.639 L 125.292 96.530 L 125.314 96.297 L 125.290 96.077 L 125.218 95.854 L 125.101 95.652 L 124.953 95.487 L 124.935 95.470 L 124.744 95.334 L 124.529 95.242 L 124.312 95.196 L 124.090 95.195 L 123.849 95.245 L 123.635 95.340 L 123.446 95.478 L 123.282 95.662 L 123.172 95.854 L 123.103 96.065 L 123.075 96.310" fill="none" stroke="#000000" stroke-width="0.2"/>
  <path d="M 128.720 100.500 L 128.748 100.766 L 128.820 100.993 L 128.844 101.047 L 128.949 101.228 L 128.983 101.275 L 129.144 101.451 L 129.360 101.608 L 129.604 101.717 L 129.866 101.773 L 130.105 101.774 L 130.163 101.768 L 130.396 101.717 L 130.614 101.622 L 130.665 101.593 L 130.856 101.451 L 131.036 101.252 L 131.079 101.180 L 131.073 101.170 L 131.079 101.180 L 132.000 101.180 L 132.097 101.172 L 132.147 101.163 L 132.217 101.144 L 132.264 101.126 L 132.329 101.094 L 132.373 101.068 L 132.431 101.025 L 132.469 100.991 L 132.519 100.939 L 132.550 100.899 L 132.589 100.838 L 132.613 100.793 L 132.641 100.726 L 132.656 100.678 L 132.671 100.607 L 132.677 100.557 L 132.679 100.484 L 132.676 100.434 L 132.665 100.362 L 132.653 100.313 L 132.629 100.244 L 132.609 100.198 L 132.573 100.135 L 132.544 100.093 L 132.495 100.035 L 132.491 100.036 L 132.495 100.035 L 132.495 97.391 L 132.486 97.387 L 132.495 97.391 L 132.649 97.280 L 132.692 97.240 L 132.851 97.062 L 132.971 96.857 L 132.995 96.803 L 133.067 96.576 L 133.095 96.310 L 133.067 96.044 L 132.995 95.817 L 132.971 95.763 L 132.866 95.582 L 132.832 95.535 L 132.671 95.359 L 132.480 95.217 L 132.429 95.188 L 132.238 95.103 L 132.158 95.080 L 131.472 95.080 L 131.392 95.103 L 131.175 95.202 L 130.981 95.340 L 130.938 95.380 L 130.798 95.535 L 130.764 95.582 L 130.646 95.789 L 130.571 96.016 L 130.558 96.073 L 130.537 96.281 L 130.537 96.339 L 130.563 96.576 L 130.646 96.831 L 130.764 97.038 L 130.798 97.085 L 130.959 97.261 L 131.135 97.391 L 131.144 97.387 L 131.135 97.391 L 131.135 99.820 L 131.158 99.843 L 131.135 99.820 L 131.079 99.820 L 131.073 99.830 L 131.079 99.820 L 131.036 99.748 L 130.877 99.570 L 130.834 99.530 L 130.640 99.391 L 130.396 99.283 L 130.163 99.232 L 130.105 99.226 L 129.866 99.227 L 129.604 99.283 L 129.360 99.391 L 129.166 99.530 L 129.123 99.570 L 128.964 99.748 L 128.844 99.953 L 128.820 100.007 L 128.748 100.234 L 128.720 100.500 L 128.800 100.500 L 128.826 100.749 L 128.904 100.988 L 129.029 101.205 L 129.182 101.377 L 129.213 101.405 L 129.382 101.528 L 129.419 101.549 L 129.629 101.641 L 129.875 101.693 L 130.125 101.693 L 130.351 101.647 L 130.390 101.634 L 130.600 101.539 L 130.787 101.405 L 130.818 101.377 L 130.971 101.205 L 131.032 101.100 L 131.026 101.089 L 131.032 101.100 L 132.000 101.100 L 132.090 101.093 L 132.196 101.067 L 132.294 101.022 L 132.325 101.003 L 132.411 100.936 L 132.483 100.855 L 132.522 100.794 L 132.567 100.695 L 132.593 100.590 L 132.599 100.482 L 132.586 100.374 L 132.577 100.339 L 132.539 100.238 L 132.483 100.145 L 132.424 100.076 L 132.415 100.066 L 132.410 100.068 L 132.415 100.066 L 132.415 97.349 L 132.406 97.345 L 132.415 97.349 L 132.433 97.338 L 132.602 97.215 L 132.633 97.187 L 132.786 97.015 L 132.902 96.817 L 132.919 96.779 L 132.989 96.559 L 133.014 96.331 L 133.014 96.289 L 132.989 96.060 L 132.911 95.822 L 132.786 95.605 L 132.633 95.433 L 132.602 95.405 L 132.433 95.282 L 132.396 95.261 L 132.186 95.169 L 131.940 95.117 L 131.690 95.117 L 131.444 95.169 L 131.215 95.271 L 131.028 95.405 L 130.997 95.433 L 130.857 95.588 L 130.833 95.622 L 130.719 95.822 L 130.647 96.040 L 130.638 96.081 L 130.615 96.310 L 130.638 96.539 L 130.647 96.580 L 130.719 96.798 L 130.844 97.015 L 130.997 97.187 L 131.028 97.215 L 131.197 97.338 L 131.215 97.349 L 131.223 97.345 L 131.215 97.349 L 131.215 99.900 L 131.238 99.923 L 131.215 99.900 L 131.032 99.900 L 131.026 99.911 L 131.032 99.900 L 130.971 99.795 L 130.803 99.608 L 130.600 99.461 L 130.371 99.359 L 130.146 99.310 L 130.105 99.305 L 129.875 99.307 L 129.649 99.353 L 129.610 99.366 L 129.419 99.451 L 129.382 99.472 L 129.197 99.608 L 129.029 99.795 L 128.913 99.993 L 128.896 100.031 L 128.826 100.251 L 128.800 100.500 L 128.880 100.500 L 128.904 100.267 L 128.977 100.044 L 129.094 99.842 L 129.242 99.677 L 129.429 99.537 L 129.451 99.524 L 129.654 99.435 L 129.870 99.388 L 130.117 99.386 L 130.358 99.439 L 130.560 99.530 L 130.749 99.668 L 130.906 99.842 L 130.986 99.980 L 131.295 99.980 L 131.295 97.298 L 131.244 97.273 L 131.057 97.133 L 130.909 96.968 L 130.792 96.766 L 130.717 96.530 L 130.695 96.310 L 130.717 96.090 L 130.792 95.854 L 130.902 95.662 L 130.917 95.642 L 131.075 95.470 L 131.255 95.340 L 131.469 95.245 L 131.698 95.196 L 131.932 95.196 L 132.161 95.245 L 132.364 95.334 L 132.555 95.470 L 132.573 95.487 L 132.721 95.652 L 132.838 95.854 L 132.911 96.077 L 132.934 96.297 L 132.912 96.530 L 132.907 96.555 L 132.838 96.766 L 132.728 96.958 L 132.564 97.142 L 132.386 97.273 L 132.335 97.298 L 132.335 100.100 L 132.375 100.140 L 132.434 100.214 L 132.478 100.297 L 132.507 100.386 L 132.519 100.479 L 132.514 100.573 L 132.493 100.665 L 132.455 100.751 L 132.416 100.812 L 132.353 100.882 L 132.278 100.939 L 132.194 100.982 L 132.083 101.013 L 132.000 101.020 L 130.986 101.020 L 130.906 101.158 L 130.758 101.323 L 130.560 101.470 L 130.334 101.568 L 130.117 101.614 L 129.883 101.614 L 129.654 101.565 L 129.440 101.470 L 129.251 101.332 L 129.102 101.168 L 129.087 101.148 L 128.972 100.944 L 128.904 100.733 L 128.880 100.500" fill="none" stroke="#000000" stroke-width="0.2"/>
  <path d="M 130.695 91.230 L 130.719 91.463 L 130.787 91.674 L 130.902 91.878 L 130.917 91.898 L 131.066 92.062 L 131.255 92.200 L 131.469 92.295 L 131.698 92.344 L 131.932 92.344 L 132.149 92.298 L 132.375 92.200 L 132.573 92.053 L 132.721 91.888 L 132.801 91.750 L 135.471 91.750 L 135.483 91.777 L 135.594 91.968 L 135.760 92.150 L 135.940 92.280 L 136.142 92.371 L 136.371 92.422 L 136.395 92.424 L 136.617 92.424 L 136.834 92.378 L 137.060 92.280 L 137.249 92.142 L 137.398 91.978 L 137.517 91.777 L 137.529 91.750 L 140.409 91.750 L 140.477 91.956 L 140.594 92.158 L 140.751 92.332 L 140.929 92.463 L 140.951 92.476 L 141.166 92.568 L 141.383 92.614 L 141.617 92.614 L 141.846 92.565 L 142.060 92.470 L 142.249 92.332 L 142.398 92.168 L 142.413 92.148 L 142.528 91.944 L 142.596 91.733 L 142.620 91.500 L 142.596 91.267 L 142.528 91.056 L 142.517 91.033 L 142.398 90.832 L 142.249 90.668 L 142.060 90.530 L 141.846 90.435 L 141.617 90.386 L 141.383 90.386 L 141.154 90.435 L 140.940 90.530 L 140.760 90.660 L 140.712 90.710 L 137.441 90.710 L 137.398 90.642 L 137.249 90.478 L 137.049 90.334 L 136.834 90.242 L 136.617 90.196 L 136.395 90.195 L 136.154 90.245 L 135.940 90.340 L 135.751 90.478 L 135.602 90.642 L 135.559 90.710 L 132.801 90.710 L 132.721 90.572 L 132.573 90.407 L 132.375 90.260 L 132.149 90.162 L 131.932 90.116 L 131.698 90.116 L 131.469 90.165 L 131.266 90.254 L 131.244 90.267 L 131.057 90.407 L 130.909 90.572 L 130.792 90.774 L 130.719 90.997 L 130.695 91.230 L 130.615 91.230 L 130.641 90.980 L 130.711 90.761 L 130.728 90.723 L 130.833 90.542 L 130.857 90.508 L 131.012 90.338 L 131.215 90.191 L 131.444 90.089 L 131.690 90.037 L 131.940 90.037 L 132.166 90.083 L 132.205 90.096 L 132.415 90.191 L 132.602 90.325 L 132.633 90.353 L 132.786 90.525 L 132.847 90.630 L 132.841 90.641 L 132.847 90.630 L 135.513 90.630 L 135.517 90.637 L 135.513 90.630 L 135.542 90.588 L 135.697 90.418 L 135.900 90.271 L 136.129 90.169 L 136.354 90.120 L 136.395 90.115 L 136.605 90.115 L 136.646 90.120 L 136.871 90.169 L 137.081 90.261 L 137.118 90.282 L 137.303 90.418 L 137.458 90.588 L 137.487 90.630 L 137.483 90.637 L 137.487 90.630 L 140.676 90.630 L 140.677 90.634 L 140.676 90.630 L 140.682 90.623 L 140.713 90.595 L 140.900 90.461 L 141.129 90.359 L 141.375 90.307 L 141.605 90.305 L 141.646 90.310 L 141.871 90.359 L 142.100 90.461 L 142.303 90.608 L 142.471 90.795 L 142.596 91.012 L 142.674 91.250 L 142.700 91.500 L 142.677 91.729 L 142.668 91.770 L 142.596 91.988 L 142.482 92.188 L 142.458 92.222 L 142.303 92.392 L 142.100 92.539 L 141.890 92.634 L 141.851 92.647 L 141.625 92.693 L 141.375 92.693 L 141.149 92.647 L 141.110 92.634 L 140.919 92.549 L 140.882 92.528 L 140.697 92.392 L 140.529 92.205 L 140.404 91.988 L 140.351 91.830 L 140.362 91.815 L 140.351 91.830 L 137.579 91.830 L 137.573 91.819 L 137.579 91.830 L 137.482 91.998 L 137.458 92.032 L 137.303 92.202 L 137.118 92.338 L 137.081 92.359 L 136.871 92.451 L 136.646 92.500 L 136.605 92.504 L 136.375 92.503 L 136.149 92.457 L 136.110 92.444 L 135.900 92.349 L 135.697 92.202 L 135.542 92.032 L 135.518 91.998 L 135.421 91.830 L 135.427 91.819 L 135.421 91.830 L 132.847 91.830 L 132.841 91.819 L 132.847 91.830 L 132.786 91.935 L 132.633 92.107 L 132.602 92.135 L 132.415 92.269 L 132.205 92.364 L 132.166 92.377 L 131.940 92.423 L 131.710 92.424 L 131.669 92.420 L 131.464 92.377 L 131.425 92.364 L 131.215 92.269 L 131.028 92.135 L 130.997 92.107 L 130.844 91.935 L 130.719 91.718 L 130.641 91.479 L 130.615 91.230 L 130.535 91.230 L 130.563 90.964 L 130.635 90.737 L 130.659 90.683 L 130.779 90.478 L 130.959 90.279 L 131.150 90.137 L 131.201 90.108 L 131.392 90.023 L 131.472 90.000 L 132.158 90.000 L 132.238 90.023 L 132.455 90.122 L 132.671 90.279 L 132.851 90.478 L 132.894 90.550 L 132.888 90.560 L 132.894 90.550 L 135.471 90.550 L 135.474 90.557 L 135.471 90.550 L 135.483 90.535 L 135.644 90.359 L 135.835 90.217 L 135.886 90.188 L 136.104 90.093 L 136.337 90.042 L 136.395 90.036 L 136.605 90.036 L 136.663 90.042 L 136.896 90.093 L 137.140 90.201 L 137.356 90.359 L 137.517 90.535 L 137.529 90.550 L 137.526 90.557 L 137.529 90.550 L 140.642 90.550 L 140.644 90.554 L 140.642 90.550 L 140.666 90.530 L 140.860 90.392 L 141.077 90.293 L 141.133 90.275 L 141.337 90.232 L 141.395 90.225 L 141.634 90.227 L 141.867 90.275 L 141.923 90.293 L 142.114 90.378 L 142.165 90.407 L 142.356 90.549 L 142.536 90.748 L 142.656 90.953 L 142.680 91.007 L 142.752 91.234 L 142.780 91.500 L 142.752 91.766 L 142.669 92.021 L 142.536 92.252 L 142.356 92.451 L 142.140 92.608 L 141.896 92.717 L 141.634 92.773 L 141.395 92.774 L 141.337 92.768 L 141.133 92.725 L 141.077 92.707 L 140.860 92.608 L 140.666 92.470 L 140.623 92.430 L 140.483 92.275 L 140.449 92.228 L 140.331 92.021 L 140.293 91.910 L 140.303 91.896 L 140.293 91.910 L 137.625 91.910 L 137.619 91.899 L 137.625 91.910 L 137.536 92.062 L 137.377 92.240 L 137.334 92.280 L 137.165 92.403 L 137.114 92.432 L 136.896 92.527 L 136.663 92.578 L 136.605 92.584 L 136.366 92.583 L 136.133 92.535 L 136.077 92.517 L 135.860 92.418 L 135.666 92.280 L 135.623 92.240 L 135.464 92.062 L 135.375 91.910 L 135.381 91.899 L 135.375 91.910 L 132.894 91.910 L 132.888 91.900 L 132.894 91.910 L 132.851 91.982 L 132.671 92.181 L 132.455 92.338 L 132.238 92.437 L 132.158 92.460 L 131.472 92.460 L 131.392 92.437 L 131.201 92.352 L 131.150 92.323 L 130.959 92.181 L 130.779 91.982 L 130.659 91.777 L 130.635 91.723 L 130.563 91.496 L 130.535 91.230" fill="none" stroke="#000000" stroke-width="0.2"/>
  <path d="M 112.730 75.050 L 112.730 68.950 L 112.739 68.904 L 112.765 68.865 L 112.804 68.839 L 112.850 68.830 L 118.550 68.830 L 118.596 68.839 L 118.635 68.865 L 118.661 68.904 L 118.670 68.950 L 118.670 75.050 L 118.661 75.096 L 118.635 75.135 L 118.596 75.161 L 118.550 75.170 L 112.850 75.170 L 112.804 75.161 L 112.765 75.135 L 112.739 75.096 L 112.730 75.050 L 112.650 75.050 L 112.654 75.089 L 112.665 75.127 L 112.684 75.161 L 112.709 75.191 L 112.739 75.216 L 112.773 75.235 L 112.811 75.246 L 112.850 75.250 L 118.550 75.250 L 118.589 75.246 L 118.627 75.235 L 118.661 75.216 L 118.691 75.191 L 118.716 75.161 L 118.735 75.127 L 118.746 75.089 L 118.750 75.050 L 118.750 68.950 L 118.746 68.911 L 118.735 68.873 L 118.716 68.839 L 118.691 68.809 L 118.661 68.784 L 118.627 68.765 L 118.589 68.754 L 118.550 68.750 L 112.850 68.750 L 112.811 68.754 L 112.773 68.765 L 112.739 68.784 L 112.709 68.809 L 112.684 68.839 L 112.665 68.873 L 112.654 68.911 L 112.650 68.950 L 112.650 75.050 L 112.570 75.050 L 112.575 75.105 L 112.591 75.157 L 112.617 75.206 L 112.652 75.248 L 112.694 75.283 L 112.743 75.309 L 112.795 75.325 L 112.850 75.330 L 118.550 75.330 L 118.605 75.325 L 118.657 75.309 L 118.706 75.283 L 118.748 75.248 L 118.783 75.206 L 118.809 75.157 L 118.825 75.105 L 118.830 75.050 L 118.830 68.950 L 118.825 68.895 L 118.809 68.843 L 118.783 68.794 L 118.748 68.752 L 118.706 68.717 L 118.657 68.691 L 118.605 68.675 L 118.550 68.670 L 112.850 68.670 L 112.795 68.675 L 112.743 68.691 L 112.694 68.717 L 112.652 68.752 L 112.617 68.794 L 112.591 68.843 L 112.575 68.895 L 112.570 68.950 L 112.570 75.050" fill="none" stroke="#000000" stroke-width="0.2"/>
</svg>
